<svg xmlns="http://www.w3.org/2000/svg" display="none">
    <symbol id="headphones" viewBox="0 0 76 92">
        <g>
            <path
                    d="M67.1667 54.3333V71H58.8333V54.3333H67.1667ZM17.1667 54.3333V71H13C10.7083 71 8.83333 69.125 8.83333 66.8333V54.3333H17.1667ZM38 0.166626C17.2917 0.166626 0.5 16.9583 0.5 37.6666V66.8333C0.5 73.75 6.08333 79.3333 13 79.3333H25.5V46H8.83333V37.6666C8.83333 21.5416 21.875 8.49996 38 8.49996C54.125 8.49996 67.1667 21.5416 67.1667 37.6666V46H50.5V79.3333H67.1667V83.5H38V91.8333H63C69.9167 91.8333 75.5 86.25 75.5 79.3333V37.6666C75.5 16.9583 58.7083 0.166626 38 0.166626Z"
                    fill="#3077C6"
            />
        </g>
    </symbol>
    <symbol id="mail" viewBox="0 0 84 84">
        <g>
            <path
                    d="M54.5 8.66671V37.8334H13.5417L8.66666 42.7084V8.66671H54.5ZM58.6667 0.333374H4.5C2.20833 0.333374 0.333328 2.20837 0.333328 4.50004V62.8334L17 46.1667H58.6667C60.9583 46.1667 62.8333 44.2917 62.8333 42V4.50004C62.8333 2.20837 60.9583 0.333374 58.6667 0.333374ZM79.5 17H71.1667V54.5H17V62.8334C17 65.125 18.875 67 21.1667 67H67L83.6667 83.6667V21.1667C83.6667 18.875 81.7917 17 79.5 17Z"
                    fill="#3077C6"
            />
        </g>
    </symbol>
    <symbol id="computer" viewBox="0 0 100 68">
        <g>
            <path d="M16.6667 8.99996H91.6667V0.666626H16.6667C12.0833 0.666626 8.33333 4.41663 8.33333 8.99996V54.8333H0V67.3333H58.3333V54.8333H16.6667V8.99996ZM95.8333 17.3333H70.8333C68.5417 17.3333 66.6667 19.2083 66.6667 21.5V63.1666C66.6667 65.4583 68.5417 67.3333 70.8333 67.3333H95.8333C98.125 67.3333 100 65.4583 100 63.1666V21.5C100 19.2083 98.125 17.3333 95.8333 17.3333ZM91.6667 54.8333H75V25.6666H91.6667V54.8333Z" fill="#3077C6"/>
        </g>
    </symbol>
    <symbol id="like" viewBox="0 0 92 84">
        <g>
            <path d="M83.5 29.3333H57.2083L61.1667 10.2916L61.2917 8.95829C61.2917 7.24996 60.5833 5.66663 59.4583 4.54163L55.0417 0.166626L27.625 27.625C26.0833 29.125 25.1667 31.2083 25.1667 33.5V75.1666C25.1667 79.75 28.9167 83.5 33.5 83.5H71C74.4583 83.5 77.4167 81.4166 78.6667 78.4166L91.25 49.0416C91.625 48.0833 91.8333 47.0833 91.8333 46V37.6666C91.8333 33.0833 88.0833 29.3333 83.5 29.3333ZM83.5 46L71 75.1666H33.5V33.5L51.5833 15.4166L46.9583 37.6666H83.5V46ZM0.166656 33.5H16.8333V83.5H0.166656V33.5Z" fill="#3077C6"/>
        </g>
    </symbol>
    <symbol id="logo" viewBox="0 0 205 40">
        <g>
            <path d="M0.840915 11.0236C0.634374 10.6937 0.442587 10.2437 0.265552 9.67379C0.0885173 9.10386 0 8.50394 0 7.87402C0 6.70416 0.250799 5.86427 0.752398 5.35433C1.2835 4.84439 1.96213 4.58943 2.7883 4.58943H22.0851C22.2916 4.91938 22.4834 5.36933 22.6604 5.93926C22.8375 6.50919 22.926 7.10911 22.926 7.73903C22.926 8.90889 22.6604 9.74878 22.1293 10.2587C21.6277 10.7687 20.9639 11.0236 20.1377 11.0236H15.225V31.811C14.9004 31.901 14.3841 31.991 13.6759 32.081C12.9973 32.171 12.3187 32.216 11.64 32.216C10.9614 32.216 10.3565 32.156 9.82543 32.036C9.32383 31.946 8.896 31.766 8.54193 31.4961C8.18786 31.2261 7.9223 30.8511 7.74527 30.3712C7.56823 29.8913 7.47972 29.2613 7.47972 28.4814V11.0236H0.840915Z"/>
            <path d="M31.8497 31.946C31.5546 32.036 31.0825 32.126 30.4334 32.216C29.8138 32.306 29.1646 32.351 28.486 32.351C27.8369 32.351 27.2467 32.306 26.7156 32.216C26.214 32.126 25.7862 31.946 25.4321 31.676C25.0781 31.4061 24.7978 31.0461 24.5912 30.5962C24.4142 30.1162 24.3257 29.5013 24.3257 28.7514V15.2531C24.3257 14.5632 24.4437 13.9783 24.6797 13.4983C24.9453 12.9884 25.3141 12.5384 25.7862 12.1485C26.2583 11.7585 26.8337 11.4136 27.5123 11.1136C28.2204 10.7837 28.9728 10.4987 29.7695 10.2587C30.5662 10.0187 31.3923 9.83877 32.248 9.71878C33.1036 9.5688 33.9593 9.49381 34.815 9.49381C36.2313 9.49381 37.3525 9.77878 38.1786 10.3487C39.0048 10.8886 39.4179 11.7885 39.4179 13.0484C39.4179 13.4683 39.3589 13.8883 39.2409 14.3082C39.1228 14.6982 38.9753 15.0581 38.7983 15.3881C38.1786 15.3881 37.5443 15.4181 36.8951 15.4781C36.246 15.5381 35.6116 15.628 34.992 15.748C34.3724 15.868 33.7823 16.003 33.2217 16.153C32.6906 16.273 32.2332 16.4229 31.8497 16.6029V31.946Z"/>
            <path d="M42.3448 4.04949C42.3448 2.90964 42.7137 1.94976 43.4513 1.16985C44.2185 0.389951 45.2216 0 46.4609 0C47.7001 0 48.6886 0.389951 49.4262 1.16985C50.1934 1.94976 50.577 2.90964 50.577 4.04949C50.577 5.18935 50.1934 6.14923 49.4262 6.92913C48.6886 7.70904 47.7001 8.09899 46.4609 8.09899C45.2216 8.09899 44.2185 7.70904 43.4513 6.92913C42.7137 6.14923 42.3448 5.18935 42.3448 4.04949ZM50.2229 31.946C49.8983 32.006 49.4115 32.081 48.7623 32.171C48.1427 32.291 47.5084 32.351 46.8592 32.351C46.2101 32.351 45.62 32.306 45.0889 32.216C44.5873 32.126 44.1594 31.946 43.8054 31.676C43.4513 31.4061 43.171 31.0461 42.9645 30.5962C42.7874 30.1162 42.6989 29.5013 42.6989 28.7514V10.4387C43.0235 10.3787 43.4956 10.3037 44.1152 10.2137C44.7643 10.0937 45.4134 10.0337 46.0626 10.0337C46.7117 10.0337 47.2871 10.0787 47.7887 10.1687C48.3198 10.2587 48.7623 10.4387 49.1164 10.7087C49.4705 10.9786 49.736 11.3536 49.9131 11.8335C50.1196 12.2835 50.2229 12.8834 50.2229 13.6333V31.946Z" />
            <path d="M64.8825 9.44882C66.6529 9.44882 68.2905 9.68879 69.7952 10.1687C71.3296 10.6187 72.6426 11.3236 73.7343 12.2835C74.826 13.2433 75.6816 14.4582 76.3013 15.928C76.9209 17.3678 77.2307 19.0926 77.2307 21.1024C77.2307 23.0221 76.9652 24.7019 76.4341 26.1417C75.9029 27.5816 75.1506 28.7964 74.1769 29.7863C73.2032 30.7462 72.0229 31.4661 70.6362 31.946C69.2789 32.4259 67.7593 32.6659 66.0775 32.6659C64.8088 32.6659 63.6285 32.4709 62.5368 32.081V39.5501C62.2418 39.64 61.7697 39.73 61.1205 39.82C60.4714 39.94 59.8075 40 59.1289 40C58.4798 40 57.8897 39.955 57.3586 39.865C56.857 39.775 56.4291 39.5951 56.0751 39.3251C55.721 39.0551 55.4554 38.6802 55.2784 38.2002C55.1014 37.7503 55.0128 37.1504 55.0128 36.4004V14.8031C55.0128 13.9933 55.1751 13.3333 55.4997 12.8234C55.8538 12.3135 56.3259 11.8485 56.916 11.4286C57.8307 10.8286 58.9666 10.3487 60.3239 9.98875C61.6812 9.6288 63.2007 9.44882 64.8825 9.44882ZM64.9711 26.6367C68.0101 26.6367 69.5297 24.7919 69.5297 21.1024C69.5297 19.1826 69.1461 17.7578 68.379 16.8279C67.6413 15.898 66.5644 15.4331 65.1481 15.4331C64.5875 15.4331 64.0859 15.5081 63.6433 15.658C63.2007 15.778 62.8171 15.928 62.4926 16.108V26.0067C62.8466 26.1867 63.2302 26.3367 63.6433 26.4567C64.0564 26.5767 64.499 26.6367 64.9711 26.6367Z" />
            <path d="M105.466 31.811C105.141 31.901 104.625 31.991 103.917 32.081C103.238 32.171 102.56 32.216 101.881 32.216C101.202 32.216 100.598 32.156 100.066 32.036C99.5649 31.946 99.137 31.766 98.783 31.4961C98.4289 31.2261 98.1633 30.8511 97.9863 30.3712C97.8093 29.8913 97.7207 29.2613 97.7207 28.4814V21.4623H89.2231V31.811C88.8985 31.901 88.3822 31.991 87.674 32.081C86.9954 32.171 86.3168 32.216 85.6381 32.216C84.9595 32.216 84.3546 32.156 83.8235 32.036C83.3219 31.946 82.8941 31.766 82.54 31.4961C82.1859 31.2261 81.9204 30.8511 81.7434 30.3712C81.5663 29.8913 81.4778 29.2613 81.4778 28.4814V4.72441C81.8024 4.66442 82.3187 4.58943 83.0269 4.49944C83.735 4.37945 84.4136 4.31946 85.0628 4.31946C85.7414 4.31946 86.3315 4.37945 86.8331 4.49944C87.3642 4.58943 87.8068 4.7694 88.1609 5.03937C88.5149 5.30934 88.7805 5.68429 88.9575 6.16423C89.1346 6.64417 89.2231 7.27409 89.2231 8.05399V15.2531H97.7207V4.72441C98.0453 4.66442 98.5617 4.58943 99.2698 4.49944C99.9779 4.37945 100.657 4.31946 101.306 4.31946C101.984 4.31946 102.574 4.37945 103.076 4.49944C103.607 4.58943 104.05 4.7694 104.404 5.03937C104.758 5.30934 105.023 5.68429 105.2 6.16423C105.377 6.64417 105.466 7.27409 105.466 8.05399V31.811Z" />
            <path d="M132.901 21.0574C132.901 22.9171 132.621 24.5819 132.06 26.0517C131.499 27.4916 130.703 28.7064 129.67 29.6963C128.667 30.6862 127.457 31.4361 126.041 31.946C124.624 32.4559 123.046 32.7109 121.305 32.7109C119.564 32.7109 117.986 32.4409 116.569 31.901C115.153 31.3611 113.929 30.5962 112.896 29.6063C111.893 28.5864 111.111 27.3566 110.55 25.9168C109.99 24.4769 109.709 22.8571 109.709 21.0574C109.709 19.2876 109.99 17.6828 110.55 16.243C111.111 14.8031 111.893 13.5883 112.896 12.5984C113.929 11.5786 115.153 10.7986 116.569 10.2587C117.986 9.71878 119.564 9.44882 121.305 9.44882C123.046 9.44882 124.624 9.73378 126.041 10.3037C127.457 10.8436 128.667 11.6235 129.67 12.6434C130.703 13.6333 131.499 14.8481 132.06 16.288C132.621 17.7278 132.901 19.3176 132.901 21.0574ZM117.41 21.0574C117.41 22.8871 117.75 24.297 118.428 25.2868C119.136 26.2467 120.11 26.7267 121.349 26.7267C122.589 26.7267 123.533 26.2317 124.182 25.2418C124.861 24.252 125.2 22.8571 125.2 21.0574C125.2 19.2576 124.861 17.8778 124.182 16.9179C123.503 15.928 122.544 15.4331 121.305 15.4331C120.066 15.4331 119.107 15.928 118.428 16.9179C117.75 17.8778 117.41 19.2576 117.41 21.0574Z" />
            <path d="M136.572 10.4387C136.867 10.3487 137.324 10.2587 137.944 10.1687C138.593 10.0787 139.257 10.0337 139.935 10.0337C140.584 10.0337 141.16 10.0787 141.661 10.1687C142.192 10.2587 142.635 10.4387 142.989 10.7087C143.343 10.9786 143.609 11.3536 143.786 11.8335C143.992 12.2835 144.096 12.8834 144.096 13.6333V23.3071C144.096 24.5369 144.391 25.4218 144.981 25.9618C145.571 26.4717 146.426 26.7267 147.548 26.7267C148.226 26.7267 148.772 26.6667 149.185 26.5467C149.628 26.4267 149.967 26.3067 150.203 26.1867V10.4387C150.498 10.3487 150.956 10.2587 151.575 10.1687C152.224 10.0787 152.888 10.0337 153.567 10.0337C154.216 10.0337 154.791 10.0787 155.293 10.1687C155.824 10.2587 156.267 10.4387 156.621 10.7087C156.975 10.9786 157.24 11.3536 157.417 11.8335C157.624 12.2835 157.727 12.8834 157.727 13.6333V27.3116C157.727 28.8114 157.108 29.9363 155.868 30.6862C154.836 31.3461 153.596 31.841 152.151 32.171C150.734 32.5309 149.185 32.7109 147.503 32.7109C145.91 32.7109 144.435 32.5309 143.078 32.171C141.75 31.811 140.599 31.2561 139.625 30.5062C138.652 29.7563 137.899 28.7964 137.368 27.6265C136.837 26.4267 136.572 24.9869 136.572 23.3071V10.4387Z" />
            <path d="M180.478 25.4668C180.478 27.7465 179.637 29.5313 177.955 30.8211C176.273 32.111 173.794 32.7559 170.519 32.7559C169.28 32.7559 168.129 32.6659 167.067 32.4859C166.005 32.306 165.09 32.036 164.323 31.676C163.586 31.2861 162.995 30.8061 162.553 30.2362C162.14 29.6663 161.933 28.9914 161.933 28.2115C161.933 27.4916 162.081 26.8916 162.376 26.4117C162.671 25.9018 163.025 25.4818 163.438 25.1519C164.294 25.6318 165.267 26.0667 166.359 26.4567C167.48 26.8166 168.764 26.9966 170.21 26.9966C171.124 26.9966 171.818 26.8616 172.29 26.5917C172.791 26.3217 173.042 25.9618 173.042 25.5118C173.042 25.0919 172.865 24.7619 172.511 24.5219C172.157 24.282 171.567 24.087 170.741 23.937L169.413 23.667C166.846 23.1571 164.928 22.3622 163.659 21.2823C162.42 20.1725 161.8 18.5977 161.8 16.5579C161.8 15.4481 162.036 14.4432 162.509 13.5433C162.981 12.6434 163.645 11.8935 164.5 11.2936C165.356 10.6937 166.374 10.2287 167.554 9.89876C168.764 9.5688 170.092 9.40382 171.537 9.40382C172.629 9.40382 173.647 9.49381 174.591 9.67379C175.565 9.82377 176.406 10.0637 177.114 10.3937C177.822 10.7237 178.383 11.1586 178.796 11.6985C179.209 12.2085 179.415 12.8234 179.415 13.5433C179.415 14.2332 179.283 14.8331 179.017 15.3431C178.781 15.823 178.471 16.228 178.088 16.5579C177.852 16.4079 177.497 16.258 177.025 16.108C176.553 15.928 176.037 15.778 175.476 15.658C174.916 15.5081 174.34 15.3881 173.75 15.2981C173.19 15.2081 172.673 15.1631 172.201 15.1631C171.227 15.1631 170.475 15.2831 169.944 15.5231C169.413 15.733 169.147 16.078 169.147 16.5579C169.147 16.8879 169.295 17.1579 169.59 17.3678C169.885 17.5778 170.446 17.7728 171.272 17.9528L172.644 18.2677C175.476 18.9276 177.483 19.8425 178.663 21.0124C179.873 22.1522 180.478 23.637 180.478 25.4668Z" />
            <path d="M195.706 32.7109C193.965 32.7109 192.342 32.4709 190.837 31.991C189.362 31.4811 188.064 30.7312 186.942 29.7413C185.851 28.7514 184.98 27.5066 184.331 26.0067C183.712 24.5069 183.402 22.7522 183.402 20.7424C183.402 18.7627 183.712 17.0679 184.331 15.658C184.98 14.2182 185.821 13.0484 186.854 12.1485C187.887 11.2186 189.067 10.5437 190.395 10.1237C191.722 9.67379 193.08 9.44882 194.466 9.44882C196.03 9.44882 197.447 9.68879 198.715 10.1687C200.014 10.6487 201.12 11.3086 202.035 12.1485C202.979 12.9884 203.702 13.9933 204.203 15.1631C204.734 16.333 205 17.6078 205 18.9876C205 20.0075 204.72 20.7874 204.159 21.3273C203.598 21.8673 202.817 22.2122 201.813 22.3622L190.881 24.027C191.206 25.0169 191.87 25.7668 192.873 26.2767C193.876 26.7567 195.027 26.9966 196.325 26.9966C197.535 26.9966 198.671 26.8466 199.733 26.5467C200.825 26.2167 201.71 25.8418 202.389 25.4218C202.861 25.7218 203.259 26.1417 203.584 26.6817C203.908 27.2216 204.071 27.7915 204.071 28.3915C204.071 29.7413 203.451 30.7462 202.212 31.4061C201.268 31.916 200.205 32.261 199.025 32.4409C197.845 32.6209 196.738 32.7109 195.706 32.7109ZM194.466 15.0281C193.758 15.0281 193.139 15.1481 192.608 15.3881C192.106 15.628 191.693 15.943 191.368 16.333C191.044 16.6929 190.793 17.1129 190.616 17.5928C190.468 18.0427 190.38 18.5077 190.35 18.9876L197.919 17.7278C197.83 17.1279 197.506 16.5279 196.945 15.928C196.384 15.3281 195.558 15.0281 194.466 15.0281Z"/>
        </g>
    </symbol>
    <symbol id="account" viewBox="0 0 40 40">
        <g>
            <path
                    d="M20 0C8.96 0 0 8.96 0 20C0 31.04 8.96 40 20 40C31.04 40 40 31.04 40 20C40 8.96 31.04 0 20 0ZM20 6C23.32 6 26 8.68 26 12C26 15.32 23.32 18 20 18C16.68 18 14 15.32 14 12C14 8.68 16.68 6 20 6ZM20 34.4C15 34.4 10.58 31.84 8 27.96C8.06 23.98 16 21.8 20 21.8C23.98 21.8 31.94 23.98 32 27.96C29.42 31.84 25 34.4 20 34.4Z"
                    fill="white"
            />
        </g>
    </symbol>
    <symbol id="night" viewBox="0 0 30 30">
        <g>
            <path d="M25.6101 10.6101V4.38992H19.3899L15 0L10.6101 4.38992H4.38992V10.6101L0 15L4.38992 19.3899V25.6101H10.6101L15 30L19.3899 25.6101H25.6101V19.3899L30 15L25.6101 10.6101ZM15 22.9576C13.8196 22.9576 12.6923 22.6923 11.6844 22.2281C14.4164 20.9682 16.3263 18.2096 16.3263 15C16.3263 11.7905 14.4164 9.03183 11.6844 7.77188C12.6923 7.30769 13.8196 7.04244 15 7.04244C19.3899 7.04244 22.9576 10.6101 22.9576 15C22.9576 19.3899 19.3899 22.9576 15 22.9576Z" fill="white"/>
        </g>
    </symbol>
    <symbol id="arrow" viewBox="0 0 48 48" fill="none" xmlns="http://www.w3.org/2000/svg" >
        <circle cx="24" cy="20" r="20" fill="#F3F3F4"/>
        <g>
            <path d="M19.9412 29.8235L26.1 21.6118C26.6333 20.9007 26.6333 19.9229 26.1 19.2118L19.9412 11" stroke="#383838" stroke-width="2"/>
        </g>
    </symbol>
    <symbol id="arrow-down" viewBox="0 0 48 49" fill="none" xmlns="http://www.w3.org/2000/svg" >
        <g>
            <circle cx="24" cy="20.0146" r="20" fill="#F3F3F4"/>
            <path d="M15.1765 18L23.3882 24.1588C24.0993 24.6922 25.0771 24.6922 25.7882 24.1588L34 18" stroke="#383838" stroke-width="2"/>
        </g>
    </symbol>
    <symbol id="user" viewBox="0 0 86 86" fill="none" xmlns="http://www.w3.org/2000/svg">
        <g>
            <circle cx="43" cy="43" r="43" fill="white"/>
            <path d="M46.6518 55.7484C46.6518 53.6923 47.1633 51.7181 48.1248 49.9587C46.7643 49.1915 45.7619 48.6903 45.3425 48.4857C45.2095 48.4243 45.1379 48.2913 45.1379 48.1481V40.0671C46.1506 39.392 46.8257 38.2361 46.8257 36.9268V28.5491C46.8257 24.3858 43.4501 21 39.2766 21H38.3764H37.4763C33.313 21 29.9272 24.3756 29.9272 28.5491V36.9268C29.9272 38.2361 30.6023 39.392 31.615 40.0671V48.1481C31.615 48.2913 31.5331 48.4243 31.4104 48.4857C30.2545 49.0483 24.6592 51.8715 19.473 56.1371C18.5319 56.9043 18 58.0602 18 59.2774V65.016H38.3662H50.9787C50.7025 64.7909 50.4468 64.5454 50.1911 64.2897C47.91 62.0086 46.6518 58.9705 46.6518 55.7484Z" fill="#3077C6"/>
            <path d="M58.7324 46.4807C53.6179 46.4807 49.4648 50.6337 49.4648 55.7482C49.4648 60.8628 53.6179 65.0158 58.7324 65.0158C63.847 65.0158 68 60.8628 68 55.7482C68 50.6337 63.8572 46.4807 58.7324 46.4807ZM64.1539 57.0985H60.0827V61.1697H57.3822V57.0985H53.311V54.398H57.3822V50.3268H60.0827V54.398H64.1539V57.0985Z" fill="#3077C6"/>

        </g>
    </symbol>
    <symbol id="close" viewBox="0 0 26 26" >
        <g>
            <path d="M26 1.4857L24.5144 0L13 11.5143L1.4857 0L0 1.4857L11.5143 13L0 24.5144L1.4857 26L13 14.4857L24.5144 26L26 24.5144L14.4857 13L26 1.4857Z" fill="#BFBFBF"/>

        </g>
    </symbol>
    <symbol id="logo-low" viewBox="0 0 58 58">
        <rect width="58" height="58" rx="4" fill="#3077C6"/>
        <g>
            <path d="M2.58581 26.6094C2.53214 26.5215 2.48231 26.4017 2.43631 26.2499C2.39031 26.0981 2.36731 25.9383 2.36731 25.7706C2.36731 25.459 2.43247 25.2353 2.56281 25.0995C2.7008 24.9637 2.87713 24.8958 3.09179 24.8958H8.10569C8.15936 24.9837 8.20919 25.1035 8.25519 25.2553C8.30119 25.4071 8.32419 25.5669 8.32419 25.7346C8.32419 26.0462 8.25519 26.2699 8.11719 26.4057C7.98686 26.5415 7.81437 26.6094 7.5997 26.6094H6.32323V32.1456C6.2389 32.1696 6.10473 32.1936 5.92074 32.2175C5.74441 32.2415 5.56808 32.2535 5.39175 32.2535C5.21542 32.2535 5.05825 32.2375 4.92026 32.2056C4.78993 32.1816 4.67876 32.1337 4.58676 32.0618C4.49477 31.9899 4.42577 31.89 4.37977 31.7622C4.33377 31.6344 4.31077 31.4666 4.31077 31.2589V26.6094H2.58581Z" fill="white"/>
            <path d="M10.6428 32.1816C10.5662 32.2056 10.4435 32.2295 10.2748 32.2535C10.1138 32.2775 9.94518 32.2894 9.76885 32.2894C9.60018 32.2894 9.44685 32.2775 9.30886 32.2535C9.17853 32.2295 9.06736 32.1816 8.97536 32.1097C8.88336 32.0378 8.81053 31.9419 8.75687 31.8221C8.71087 31.6943 8.68787 31.5305 8.68787 31.3308V27.7358C8.68787 27.5521 8.71853 27.3963 8.77987 27.2685C8.84887 27.1327 8.9447 27.0128 9.06736 26.909C9.19002 26.8051 9.33952 26.7133 9.51585 26.6334C9.69985 26.5455 9.89534 26.4696 10.1023 26.4057C10.3093 26.3418 10.524 26.2938 10.7463 26.2619C10.9687 26.2219 11.191 26.202 11.4133 26.202C11.7813 26.202 12.0726 26.2779 12.2873 26.4297C12.502 26.5735 12.6093 26.8131 12.6093 27.1486C12.6093 27.2605 12.594 27.3723 12.5633 27.4842C12.5326 27.588 12.4943 27.6839 12.4483 27.7718C12.2873 27.7718 12.1225 27.7798 11.9538 27.7957C11.7851 27.8117 11.6203 27.8357 11.4593 27.8676C11.2983 27.8996 11.145 27.9355 10.9993 27.9755C10.8613 28.0074 10.7425 28.0474 10.6428 28.0953V32.1816Z" fill="white"/>
            <path d="M13.3698 24.752C13.3698 24.4484 13.4656 24.1928 13.6573 23.9851C13.8566 23.7774 14.1173 23.6735 14.4393 23.6735C14.7613 23.6735 15.0181 23.7774 15.2098 23.9851C15.4091 24.1928 15.5088 24.4484 15.5088 24.752C15.5088 25.0556 15.4091 25.3112 15.2098 25.5189C15.0181 25.7266 14.7613 25.8305 14.4393 25.8305C14.1173 25.8305 13.8566 25.7266 13.6573 25.5189C13.4656 25.3112 13.3698 25.0556 13.3698 24.752ZM15.4168 32.1816C15.3324 32.1976 15.2059 32.2175 15.0373 32.2415C14.8763 32.2735 14.7114 32.2894 14.5428 32.2894C14.3741 32.2894 14.2208 32.2775 14.0828 32.2535C13.9525 32.2295 13.8413 32.1816 13.7493 32.1097C13.6573 32.0378 13.5845 31.9419 13.5308 31.8221C13.4848 31.6943 13.4618 31.5305 13.4618 31.3308V26.4536C13.5461 26.4376 13.6688 26.4177 13.8298 26.3937C13.9985 26.3618 14.1671 26.3458 14.3358 26.3458C14.5044 26.3458 14.6539 26.3578 14.7843 26.3817C14.9223 26.4057 15.0373 26.4536 15.1293 26.5255C15.2213 26.5974 15.2903 26.6973 15.3363 26.8251C15.3899 26.9449 15.4168 27.1047 15.4168 27.3044V32.1816Z" fill="white"/>
            <path d="M19.2258 26.19C19.6858 26.19 20.1113 26.2539 20.5023 26.3817C20.9009 26.5016 21.2421 26.6893 21.5257 26.9449C21.8094 27.2006 22.0317 27.5241 22.1927 27.9156C22.3537 28.299 22.4342 28.7584 22.4342 29.2936C22.4342 29.8049 22.3652 30.2523 22.2272 30.6358C22.0892 31.0192 21.8937 31.3428 21.6407 31.6064C21.3877 31.862 21.0811 32.0538 20.7208 32.1816C20.3681 32.3094 19.9733 32.3733 19.5363 32.3733C19.2066 32.3733 18.9 32.3214 18.6163 32.2175V34.2068C18.5396 34.2307 18.417 34.2547 18.2483 34.2787C18.0796 34.3106 17.9071 34.3266 17.7308 34.3266C17.5622 34.3266 17.4088 34.3146 17.2708 34.2906C17.1405 34.2667 17.0293 34.2187 16.9373 34.1468C16.8453 34.0749 16.7763 33.9751 16.7303 33.8473C16.6843 33.7274 16.6613 33.5676 16.6613 33.3679V27.616C16.6613 27.4003 16.7035 27.2245 16.7878 27.0887C16.8798 26.9529 17.0025 26.8291 17.1558 26.7173C17.3935 26.5575 17.6887 26.4297 18.0413 26.3338C18.394 26.2379 18.7888 26.19 19.2258 26.19ZM19.2488 30.7676C20.0384 30.7676 20.4333 30.2763 20.4333 29.2936C20.4333 28.7824 20.3336 28.4029 20.1343 28.1552C19.9426 27.9076 19.6628 27.7838 19.2948 27.7838C19.1491 27.7838 19.0188 27.8037 18.9038 27.8437C18.7888 27.8756 18.6891 27.9156 18.6048 27.9635V30.5998C18.6968 30.6477 18.7965 30.6877 18.9038 30.7196C19.0111 30.7516 19.1261 30.7676 19.2488 30.7676Z" fill="white"/>
            <path d="M29.7706 32.1456C29.6863 32.1696 29.5521 32.1936 29.3681 32.2175C29.1918 32.2415 29.0155 32.2535 28.8391 32.2535C28.6628 32.2535 28.5056 32.2375 28.3677 32.2056C28.2373 32.1816 28.1262 32.1337 28.0342 32.0618C27.9422 31.9899 27.8732 31.89 27.8272 31.7622C27.7812 31.6344 27.7582 31.4666 27.7582 31.2589V29.3895H25.5502V32.1456C25.4659 32.1696 25.3317 32.1936 25.1477 32.2175C24.9714 32.2415 24.7951 32.2535 24.6187 32.2535C24.4424 32.2535 24.2852 32.2375 24.1472 32.2056C24.0169 32.1816 23.9057 32.1337 23.8137 32.0618C23.7217 31.9899 23.6527 31.89 23.6067 31.7622C23.5608 31.6344 23.5378 31.4666 23.5378 31.2589V24.9318C23.6221 24.9158 23.7562 24.8958 23.9402 24.8718C24.1242 24.8399 24.3006 24.8239 24.4692 24.8239C24.6456 24.8239 24.7989 24.8399 24.9292 24.8718C25.0672 24.8958 25.1822 24.9437 25.2742 25.0156C25.3662 25.0875 25.4352 25.1874 25.4812 25.3152C25.5272 25.443 25.5502 25.6108 25.5502 25.8185V27.7358H27.7582V24.9318C27.8425 24.9158 27.9767 24.8958 28.1607 24.8718C28.3447 24.8399 28.521 24.8239 28.6896 24.8239C28.866 24.8239 29.0193 24.8399 29.1496 24.8718C29.2876 24.8958 29.4026 24.9437 29.4946 25.0156C29.5866 25.0875 29.6556 25.1874 29.7016 25.3152C29.7476 25.443 29.7706 25.6108 29.7706 25.8185V32.1456Z" fill="white"/>
            <path d="M36.899 29.2817C36.899 29.777 36.8262 30.2203 36.6805 30.6118C36.5349 30.9953 36.3279 31.3188 36.0596 31.5824C35.7989 31.8461 35.4846 32.0458 35.1166 32.1816C34.7486 32.3174 34.3384 32.3853 33.8861 32.3853C33.4338 32.3853 33.0236 32.3134 32.6556 32.1696C32.2876 32.0258 31.9695 31.8221 31.7011 31.5585C31.4405 31.2868 31.2373 30.9593 31.0917 30.5758C30.946 30.1924 30.8732 29.761 30.8732 29.2817C30.8732 28.8103 30.946 28.3829 31.0917 27.9995C31.2373 27.616 31.4405 27.2924 31.7011 27.0288C31.9695 26.7572 32.2876 26.5495 32.6556 26.4057C33.0236 26.2619 33.4338 26.19 33.8861 26.19C34.3384 26.19 34.7486 26.2659 35.1166 26.4177C35.4846 26.5615 35.7989 26.7692 36.0596 27.0408C36.3279 27.3044 36.5349 27.628 36.6805 28.0114C36.8262 28.3949 36.899 28.8183 36.899 29.2817ZM32.8741 29.2817C32.8741 29.769 32.9623 30.1444 33.1386 30.4081C33.3226 30.6637 33.5756 30.7915 33.8976 30.7915C34.2196 30.7915 34.4649 30.6597 34.6336 30.3961C34.8099 30.1325 34.8981 29.761 34.8981 29.2817C34.8981 28.8023 34.8099 28.4348 34.6336 28.1792C34.4573 27.9156 34.2081 27.7838 33.8861 27.7838C33.5641 27.7838 33.3149 27.9156 33.1386 28.1792C32.9623 28.4348 32.8741 28.8023 32.8741 29.2817Z" fill="white"/>
            <path d="M37.8528 26.4536C37.9295 26.4297 38.0483 26.4057 38.2093 26.3817C38.378 26.3578 38.5505 26.3458 38.7268 26.3458C38.8954 26.3458 39.0449 26.3578 39.1753 26.3817C39.3133 26.4057 39.4283 26.4536 39.5203 26.5255C39.6123 26.5974 39.6813 26.6973 39.7273 26.8251C39.7809 26.9449 39.8078 27.1047 39.8078 27.3044V29.8808C39.8078 30.2084 39.8844 30.444 40.0378 30.5878C40.1911 30.7236 40.4134 30.7915 40.7047 30.7915C40.8811 30.7915 41.0229 30.7756 41.1302 30.7436C41.2452 30.7117 41.3334 30.6797 41.3947 30.6477V26.4536C41.4714 26.4297 41.5902 26.4057 41.7512 26.3817C41.9199 26.3578 42.0924 26.3458 42.2687 26.3458C42.4374 26.3458 42.5869 26.3578 42.7172 26.3817C42.8552 26.4057 42.9702 26.4536 43.0622 26.5255C43.1542 26.5974 43.2232 26.6973 43.2692 26.8251C43.3229 26.9449 43.3497 27.1047 43.3497 27.3044V30.9473C43.3497 31.3468 43.1887 31.6463 42.8667 31.8461C42.5984 32.0218 42.2764 32.1536 41.9007 32.2415C41.5327 32.3374 41.1302 32.3853 40.6932 32.3853C40.2793 32.3853 39.8959 32.3374 39.5433 32.2415C39.1983 32.1456 38.8993 31.9978 38.6463 31.7981C38.3933 31.5984 38.1978 31.3428 38.0598 31.0312C37.9218 30.7117 37.8528 30.3282 37.8528 29.8808V26.4536Z" fill="white"/>
            <path d="M49.2609 30.456C49.2609 31.0632 49.0424 31.5385 48.6054 31.882C48.1684 32.2255 47.5245 32.3973 46.6735 32.3973C46.3515 32.3973 46.0525 32.3733 45.7765 32.3254C45.5005 32.2775 45.2628 32.2056 45.0635 32.1097C44.8719 32.0058 44.7185 31.878 44.6035 31.7262C44.4962 31.5744 44.4425 31.3947 44.4425 31.187C44.4425 30.9953 44.4809 30.8355 44.5575 30.7077C44.6342 30.5718 44.7262 30.46 44.8335 30.3721C45.0558 30.5 45.3088 30.6158 45.5925 30.7196C45.8838 30.8155 46.2173 30.8634 46.593 30.8634C46.8306 30.8634 47.0108 30.8275 47.1335 30.7556C47.2638 30.6837 47.329 30.5878 47.329 30.468C47.329 30.3562 47.283 30.2683 47.191 30.2044C47.099 30.1405 46.9456 30.0885 46.731 30.0486L46.386 29.9767C45.719 29.8409 45.2207 29.6292 44.891 29.3416C44.569 29.046 44.408 28.6266 44.408 28.0833C44.408 27.7878 44.4694 27.5201 44.592 27.2805C44.7147 27.0408 44.8872 26.8411 45.1095 26.6813C45.3318 26.5215 45.5963 26.3977 45.903 26.3098C46.2173 26.2219 46.5623 26.178 46.938 26.178C47.2216 26.178 47.4861 26.202 47.7315 26.2499C47.9845 26.2899 48.203 26.3538 48.3869 26.4416C48.5709 26.5295 48.7166 26.6454 48.8239 26.7892C48.9313 26.925 48.9849 27.0887 48.9849 27.2805C48.9849 27.4642 48.9504 27.624 48.8814 27.7598C48.8201 27.8876 48.7396 27.9955 48.6399 28.0833C48.5786 28.0434 48.4866 28.0035 48.3639 27.9635C48.2413 27.9156 48.1071 27.8756 47.9615 27.8437C47.8158 27.8037 47.6663 27.7718 47.513 27.7478C47.3673 27.7238 47.2331 27.7119 47.1105 27.7119C46.8575 27.7119 46.662 27.7438 46.524 27.8077C46.386 27.8636 46.317 27.9555 46.317 28.0833C46.317 28.1712 46.3553 28.2431 46.432 28.299C46.5087 28.355 46.6543 28.4069 46.869 28.4548L47.2255 28.5387C47.9615 28.7145 48.4828 28.9581 48.7894 29.2697C49.1038 29.5732 49.2609 29.9687 49.2609 30.456Z" fill="white"/>
            <path d="M53.2177 32.3853C52.7653 32.3853 52.3437 32.3214 51.9527 32.1936C51.5694 32.0578 51.232 31.858 50.9407 31.5944C50.657 31.3308 50.4309 30.9992 50.2622 30.5998C50.1012 30.2004 50.0207 29.733 50.0207 29.1978C50.0207 28.6705 50.1012 28.2191 50.2622 27.8437C50.4309 27.4602 50.6494 27.1486 50.9177 26.909C51.186 26.6613 51.4927 26.4816 51.8377 26.3697C52.1827 26.2499 52.5353 26.19 52.8957 26.19C53.302 26.19 53.67 26.2539 53.9996 26.3817C54.337 26.5095 54.6245 26.6853 54.8621 26.909C55.1075 27.1327 55.2953 27.4003 55.4256 27.7119C55.5636 28.0234 55.6326 28.3629 55.6326 28.7304C55.6326 29.0021 55.5598 29.2098 55.4141 29.3536C55.2684 29.4974 55.0653 29.5892 54.8046 29.6292L51.9642 30.0725C52.0485 30.3362 52.221 30.5359 52.4817 30.6717C52.7423 30.7995 53.0413 30.8634 53.3787 30.8634C53.693 30.8634 53.9881 30.8235 54.2641 30.7436C54.5478 30.6557 54.7778 30.5559 54.9541 30.444C55.0768 30.5239 55.1803 30.6358 55.2646 30.7796C55.3489 30.9234 55.3911 31.0751 55.3911 31.2349C55.3911 31.5944 55.2301 31.862 54.9081 32.0378C54.6628 32.1736 54.3868 32.2655 54.0801 32.3134C53.7735 32.3613 53.486 32.3853 53.2177 32.3853ZM52.8957 27.6759C52.7117 27.6759 52.5507 27.7079 52.4127 27.7718C52.2823 27.8357 52.175 27.9196 52.0907 28.0234C52.0064 28.1193 51.9412 28.2311 51.8952 28.359C51.8568 28.4788 51.8339 28.6026 51.8262 28.7304L53.7926 28.3949C53.7696 28.2351 53.6853 28.0754 53.5396 27.9156C53.394 27.7558 53.1793 27.6759 52.8957 27.6759Z" fill="white"/>
        </g>
    </symbol>
</svg>
